# xmcd
#
# Track frame offsets: 
#        150
#        11710
#        40710
#        63567
#        83595
#        99392
#        129275
#        170253
#
# Disc length: 4208 seconds
#
# Revision: 0
# Processed by: cddbd v1.5.1PL2 Copyright (c) Steve Scherf et al.
# Submitted via: ExactAudioCopy v0.95a5
#
DISCID=56106e08
DTITLE=陸家駿 - 藍色台北
DYEAR=2005
DGENRE=Funk
TTITLE0=解開妳
TTITLE1=白天做的夢
TTITLE2=秋
TTITLE3=藍色台北
TTITLE4=迫降
TTITLE5=暗巢洶湧
TTITLE6=無止盡
TTITLE7=Bouns Live VCD
EXTD=
EXTT0=
EXTT1=
EXTT2=
EXTT3=
EXTT4=
EXTT5=
EXTT6=
EXTT7=
PLAYORDER=
